D:\school\WTK\thesis\model\3dpredictsim\Results\batch_windlass\Pog_s1_tmt_aCst_d00_k1000_WL30_ig24_act_TTC_GRF.mot
nRows=15
nColumns=19

name D:\school\WTK\thesis\model\3dpredictsim\Results\batch_windlass\Pog_s1_tmt_aCst_d00_k1000_WL30_ig24_act_TTC_GRF.mot
datacolumns 19
datarows 15
range 0.0000000000 0.1701298258
endheader
time 	ground_force_vx	ground_force_vy	ground_force_vz	ground_force_px	ground_force_py	ground_force_pz	1_ground_force_vx	1_ground_force_vy	1_ground_force_vz	1_ground_force_px	1_ground_force_py	1_ground_force_pz	ground_torque_x	ground_torque_y	ground_torque_z	1_ground_torque_x	1_ground_torque_y	1_ground_torque_z
        0.0000000000	      -62.7304695342	       52.8585537293	       16.6081412257	        0.1639819358	        0.0000000000	        0.0607732376	       68.0812956395	      313.8191268616	       -5.4058246941	       -0.3703461230	        0.0000000000	       -0.0291644240	        0.0000000000	        0.0000000000	        0.0000000000	        0.0000000000	        0.0000000000	        0.0000000000	
        0.0121521304	     -129.5761529713	      142.4943380532	       51.4115868816	        0.1742993593	        0.0000000000	        0.0598369824	       40.0428003624	      223.6788393237	      -15.5518165994	       -0.3589097450	        0.0000000000	       -0.0234701049	        0.0000000000	        0.0000000000	        0.0000000000	        0.0000000000	        0.0000000000	        0.0000000000	
        0.0243042608	      -86.4727943115	      398.4259160088	        8.3933594528	        0.1908774342	        0.0000000000	        0.0604056283	       31.3157433861	      186.0706702708	      -14.9202958183	       -0.3580850307	        0.0000000000	       -0.0228526220	        0.0000000000	        0.0000000000	        0.0000000000	        0.0000000000	        0.0000000000	        0.0000000000	
        0.0364563912	     -109.2284997929	      712.0531638909	      -17.9621608015	        0.2014335266	        0.0000000000	        0.0617824040	       26.7130836901	      133.5419112888	      -16.6313916724	       -0.3576975783	        0.0000000000	       -0.0231246863	        0.0000000000	        0.0000000000	        0.0000000000	        0.0000000000	        0.0000000000	        0.0000000000	
        0.0486085216	     -145.6224878231	      904.5026100947	      -28.2185430162	        0.2102294839	        0.0000000000	        0.0619765906	       13.9346553718	       71.4982231166	      -14.2307421335	       -0.3575794826	        0.0000000000	       -0.0234173940	        0.0000000000	        0.0000000000	        0.0000000000	        0.0000000000	        0.0000000000	        0.0000000000	
        0.0607606521	     -175.7896710192	      995.1282639112	      -28.0199478646	        0.2216692136	        0.0000000000	        0.0607758959	       -2.8727353489	       11.8320009032	       -2.4062670958	       -0.3604439009	        0.0000000000	       -0.0227829319	        0.0000000000	        0.0000000000	        0.0000000000	        0.0000000000	        0.0000000000	        0.0000000000	
        0.0729127825	     -170.1589360505	      976.3169418210	      -28.1872437579	        0.2297762272	        0.0000000000	        0.0595599955	        0.0232905308	       -0.0210954479	       -0.0007316861	        0.0000000000	        0.0000000000	        0.0000000000	        0.0000000000	        0.0000000000	        0.0000000000	        0.0000000000	        0.0000000000	        0.0000000000	
        0.0850649129	     -142.5609247069	      886.1521984124	      -26.2423710860	        0.2341093175	        0.0000000000	        0.0587795076	        0.2856709268	       -0.1979864586	       -0.0306335797	        0.0000000000	        0.0000000000	        0.0000000000	        0.0000000000	        0.0000000000	        0.0000000000	        0.0000000000	        0.0000000000	        0.0000000000	
        0.0972170433	     -121.1480036983	      798.5201196958	      -22.3058112381	        0.2374021525	        0.0000000000	        0.0583701047	       -1.0517469940	        0.6449771789	        0.1155687343	        0.0000000000	        0.0000000000	        0.0000000000	        0.0000000000	        0.0000000000	        0.0000000000	        0.0000000000	        0.0000000000	        0.0000000000	
        0.1093691737	     -103.8223215970	      740.2177502054	      -20.0440147845	        0.2404949706	        0.0000000000	        0.0581138712	       -0.7881701962	        0.4450305779	        0.0788839140	        0.0000000000	        0.0000000000	        0.0000000000	        0.0000000000	        0.0000000000	        0.0000000000	        0.0000000000	        0.0000000000	        0.0000000000	
        0.1215213041	      -88.9286971390	      696.6716780958	      -19.7878403082	        0.2435105805	        0.0000000000	        0.0579143110	       -0.4415414171	        0.2372381770	        0.0386923363	        0.0000000000	        0.0000000000	        0.0000000000	        0.0000000000	        0.0000000000	        0.0000000000	        0.0000000000	        0.0000000000	        0.0000000000	
        0.1336734345	      -76.1684502417	      661.7170316608	      -20.2808373804	        0.2466904659	        0.0000000000	        0.0577440135	       -0.2689102426	        0.1400985184	        0.0210338639	        0.0000000000	        0.0000000000	        0.0000000000	        0.0000000000	        0.0000000000	        0.0000000000	        0.0000000000	        0.0000000000	        0.0000000000	
        0.1458255649	      -65.1287391314	      635.5541053559	      -20.3407921837	        0.2499473744	        0.0000000000	        0.0576017580	       -0.1429057455	        0.0728410915	        0.0097026054	        0.0000000000	        0.0000000000	        0.0000000000	        0.0000000000	        0.0000000000	        0.0000000000	        0.0000000000	        0.0000000000	        0.0000000000	
        0.1579776954	      -55.0641966689	      616.5302161047	      -20.8315687190	        0.2538867588	        0.0000000000	        0.0573867346	       -0.0823845948	        0.0405974619	        0.0053312627	        0.0000000000	        0.0000000000	        0.0000000000	        0.0000000000	        0.0000000000	        0.0000000000	        0.0000000000	        0.0000000000	        0.0000000000	
        0.1701298258	      -47.2176129862	      603.1479786258	      -20.9364311412	        0.2586787938	        0.0000000000	        0.0570375633	       -0.0583600607	        0.0276903715	        0.0036853013	        0.0000000000	        0.0000000000	        0.0000000000	        0.0000000000	        0.0000000000	        0.0000000000	        0.0000000000	        0.0000000000	        0.0000000000	
